<svg xmlns="http://www.w3.org/2000/svg" viewBox="0 0 34 32.67"><defs><style>.cls-1{fill:#848180;}</style></defs><g id="Vrstva_2" data-name="Vrstva 2"><g id="Media_Entertainment" data-name="Media + Entertainment"><path class="cls-1" d="M34,13.28a3.48,3.48,0,0,0-.16-1,3.55,3.55,0,0,0-3-2.38L23.49,8.77l-3.3-6.68a3.47,3.47,0,0,0-6.37,0L10.51,8.77,3.14,9.85A3.47,3.47,0,0,0,0,13.28,3.62,3.62,0,0,0,1.17,15.9S5.32,20,6.51,21.11L5.25,28.46a4.38,4.38,0,0,0-.07.71A3.45,3.45,0,0,0,6.6,32a3.54,3.54,0,0,0,3.8.19L17,28.73l6.6,3.48A3.58,3.58,0,0,0,27.41,32a3.44,3.44,0,0,0,1.41-2.85,4.14,4.14,0,0,0-.06-.7L27.5,21.11l5.34-5.2A3.69,3.69,0,0,0,34,13.28Zm-2.56,1.19L25.77,20a1.43,1.43,0,0,0-.32,1l1.34,7.8a1.49,1.49,0,0,1-2.26,1.64l-7-3.69a1.46,1.46,0,0,0-1.05,0l-7,3.69a1.57,1.57,0,0,1-1.7,0,1.55,1.55,0,0,1-.55-1.6L8.56,21a1.44,1.44,0,0,0-.33-1L2.56,14.47a1.56,1.56,0,0,1-.49-1.62,1.55,1.55,0,0,1,1.35-1l7.83-1.14a1.43,1.43,0,0,0,.86-.62L15.61,3A1.57,1.57,0,0,1,17,2a1.59,1.59,0,0,1,1.4,1l3.5,7.1a1.38,1.38,0,0,0,.85.62l7.84,1.14a1.58,1.58,0,0,1,1.35,1A1.59,1.59,0,0,1,31.44,14.47ZM13.81,2.09h0Zm15.72,11L22.22,12a2.23,2.23,0,0,1-1.49-1.08L17.46,4.29c-.25-.52-.67-.52-.92,0l-3.27,6.62A2.21,2.21,0,0,1,11.78,12l-7.3,1.06c-.57.09-.7.48-.29.88l5.28,5.15a2.23,2.23,0,0,1,.58,1.76L8.8,28.11c-.1.57.24.81.75.55l6.53-3.44a2.29,2.29,0,0,1,1.85,0l6.53,3.44c.51.26.84,0,.75-.55L24,20.84a2.22,2.22,0,0,1,.57-1.76l5.28-5.15C30.22,13.53,30.1,13.14,29.53,13.05Z"/></g></g></svg>