<svg xmlns="http://www.w3.org/2000/svg" xmlns:xlink="http://www.w3.org/1999/xlink" viewBox="0 0 34.81 30.62"><defs><style>.cls-1{fill:url(#New_Gradient_Swatch_6);}.cls-2{fill:#706c64;}</style><linearGradient id="New_Gradient_Swatch_6" x1="14.18" y1="5.97" x2="20.64" y2="30.09" gradientUnits="userSpaceOnUse"><stop offset="0" stop-color="#f27900"/><stop offset="0.23" stop-color="#ee7300"/><stop offset="0.54" stop-color="#e26300"/><stop offset="0.88" stop-color="#ce4800"/><stop offset="1" stop-color="#c63d00"/></linearGradient></defs><g id="Vrstva_2" data-name="Vrstva 2"><g id="Blogging_Internet2" data-name="Blogging + Internet2"><path class="cls-1" d="M29.79,8.6h-2v6.08H6.44V8.6H5a5,5,0,0,0-5,5v8.82a5,5,0,0,0,5,5H6.44V24.27H27.81v3.19h2a5,5,0,0,0,5-5V13.62A5,5,0,0,0,29.79,8.6ZM25.37,21a1.72,1.72,0,1,1,1.72-1.73A1.73,1.73,0,0,1,25.37,21Zm5.11,0a1.72,1.72,0,1,1,1.72-1.73A1.73,1.73,0,0,1,30.48,21Z"/><path class="cls-2" d="M8.44,26.27v4.35H25.81V26.27Z"/><path class="cls-2" d="M8.44,0V12.68H25.81V0ZM22,8.7H12.23a.75.75,0,0,1,0-1.5H22a.75.75,0,0,1,0,1.5Zm0-3.22H12.23a.75.75,0,0,1,0-1.5H22a.75.75,0,0,1,0,1.5Z"/></g></g></svg>