<svg xmlns="http://www.w3.org/2000/svg" xmlns:xlink="http://www.w3.org/1999/xlink" viewBox="0 0 39.35 32.22"><defs><style>.cls-1{fill:#706c64;}.cls-2{fill:url(#New_Gradient_Swatch_6);}.cls-3{fill:url(#New_Gradient_Swatch_6-2);}.cls-4{fill:url(#New_Gradient_Swatch_6-3);}.cls-5{fill:url(#New_Gradient_Swatch_6-4);}</style><linearGradient id="New_Gradient_Swatch_6" x1="18.26" y1="0.34" x2="21.36" y2="11.88" gradientUnits="userSpaceOnUse"><stop offset="0" stop-color="#f27900"/><stop offset="0.23" stop-color="#ee7300"/><stop offset="0.54" stop-color="#e26300"/><stop offset="0.88" stop-color="#ce4800"/><stop offset="1" stop-color="#c63d00"/></linearGradient><linearGradient id="New_Gradient_Swatch_6-2" x1="4.38" y1="21.34" x2="7.47" y2="32.89" xlink:href="#New_Gradient_Swatch_6"/><linearGradient id="New_Gradient_Swatch_6-3" x1="18.26" y1="21.34" x2="21.36" y2="32.89" xlink:href="#New_Gradient_Swatch_6"/><linearGradient id="New_Gradient_Swatch_6-4" x1="32.15" y1="21.34" x2="35.24" y2="32.89" xlink:href="#New_Gradient_Swatch_6"/></defs><g id="Vrstva_2" data-name="Vrstva 2"><g id="Blogging_Internet2" data-name="Blogging + Internet2"><path class="cls-1" d="M33.52,13.59H5.84a1,1,0,0,0-1,1v3.1a1,1,0,1,0,1.94,0V15.53H18.7v2.13a1,1,0,1,0,1.95,0V15.53H32.54v2.13a1,1,0,1,0,2,0v-3.1A1,1,0,0,0,33.52,13.59Z"/><path class="cls-2" d="M23.59,0H19.52V4.37a1.37,1.37,0,0,1-1.37,1.38H13.89V9.33a1.88,1.88,0,0,0,1.87,1.88h7.83a1.88,1.88,0,0,0,1.88-1.88V1.88A1.88,1.88,0,0,0,23.59,0ZM18,.46,14.24,4.25H18Z"/><path class="cls-3" d="M9.7,21H5.64v4.37a1.37,1.37,0,0,1-1.38,1.37H0v3.59a1.88,1.88,0,0,0,1.88,1.88H9.7a1.88,1.88,0,0,0,1.88-1.88V22.89A1.88,1.88,0,0,0,9.7,21Zm-5.56.46L.35,25.25H4.14Z"/><path class="cls-4" d="M23.59,21H19.52v4.37a1.37,1.37,0,0,1-1.37,1.37H13.89v3.59a1.88,1.88,0,0,0,1.87,1.88h7.83a1.88,1.88,0,0,0,1.88-1.88V22.89A1.88,1.88,0,0,0,23.59,21ZM18,21.47c-1,1-2.75,2.75-3.78,3.78H18Z"/><path class="cls-5" d="M37.47,21H33.41v4.37A1.37,1.37,0,0,1,32,26.75H27.77v3.59a1.88,1.88,0,0,0,1.88,1.88h7.82a1.88,1.88,0,0,0,1.88-1.88V22.89A1.88,1.88,0,0,0,37.47,21Zm-5.56.46-3.79,3.78h3.79Z"/></g></g></svg>