<svg xmlns="http://www.w3.org/2000/svg" xmlns:xlink="http://www.w3.org/1999/xlink" viewBox="0 0 35.68 32.04"><defs><style>.cls-1{fill:url(#linear-gradient);}.cls-2{fill:#706c64;}</style><linearGradient id="linear-gradient" x1="13.6" y1="3.14" x2="22.08" y2="34.81" gradientUnits="userSpaceOnUse"><stop offset="0" stop-color="#f27900"/><stop offset="0.23" stop-color="#ee7300"/><stop offset="0.54" stop-color="#e26300"/><stop offset="0.88" stop-color="#ce4800"/><stop offset="1" stop-color="#c63d00"/></linearGradient></defs><g id="Vrstva_2" data-name="Vrstva 2"><g id="kiwi_computer" data-name="kiwi computer"><path class="cls-1" d="M32,5.92H27v.82a4.34,4.34,0,0,1-4.33,4.34H13.13A4.34,4.34,0,0,1,8.8,6.74V5.92H3.74A3.73,3.73,0,0,0,0,9.66V28.3A3.74,3.74,0,0,0,3.74,32H32a3.74,3.74,0,0,0,3.73-3.74V9.66A3.73,3.73,0,0,0,32,5.92ZM20.11,16.27h10.7a1,1,0,1,1,0,2H20.11a1,1,0,1,1,0-2Zm-9.45-2.13A3.07,3.07,0,1,1,7.59,17.2,3.06,3.06,0,0,1,10.66,14.14Zm6.15,12.11H4.5V23.4a2.85,2.85,0,0,1,2.85-2.86H8.57l2.14,2.14,2.14-2.14H14a2.85,2.85,0,0,1,2.85,2.86Zm9.25-.62H20.11a1,1,0,1,1,0-2h5.95a1,1,0,1,1,0,2ZM30.81,22H20.11a1,1,0,1,1,0-2h10.7a1,1,0,1,1,0,2Z"/><path class="cls-2" d="M22.62,3.3h-.84A3.94,3.94,0,0,0,14,3.3h-.84a2.31,2.31,0,0,0-2.3,2.31V6.92a2.3,2.3,0,0,0,2.3,2.3h9.46a2.3,2.3,0,0,0,2.3-2.3V5.61A2.31,2.31,0,0,0,22.62,3.3ZM17.89,5.92a2,2,0,1,1,2-2A2,2,0,0,1,17.89,5.92Z"/></g></g></svg>