<svg xmlns="http://www.w3.org/2000/svg" xmlns:xlink="http://www.w3.org/1999/xlink" viewBox="0 0 32.37 32.41"><defs><style>.cls-1{fill:url(#linear-gradient);}</style><linearGradient id="linear-gradient" x1="11.98" y1="0.33" x2="20.5" y2="32.15" gradientUnits="userSpaceOnUse"><stop offset="0" stop-color="#f27900"/><stop offset="0.23" stop-color="#ee7300"/><stop offset="0.54" stop-color="#e26300"/><stop offset="0.88" stop-color="#ce4800"/><stop offset="1" stop-color="#c63d00"/></linearGradient></defs><g id="Vrstva_2" data-name="Vrstva 2"><g id="Blogging_Internet1" data-name="Blogging + Internet1"><path class="cls-1" d="M13.24,6.19A12.79,12.79,0,0,0,17,15.29h0a13.13,13.13,0,0,0,15.38,2.17,2.81,2.81,0,0,0-.59-1L15.92.66A2.85,2.85,0,0,0,14.74,0,13.93,13.93,0,0,0,13.24,6.19ZM11.44.75.83,11.36A3.29,3.29,0,0,0,0,12.88l10.6-.2.62.25.24.62a.89.89,0,0,1-.88.88L0,14.63a2.87,2.87,0,0,0,.7,1.22L16.56,31.68a3.15,3.15,0,0,0,1.22.7c0-.66.2-10.55.2-10.55a.9.9,0,0,1,.88-.88l.62.25.25.62s-.17,8.78-.2,10.59a3.29,3.29,0,0,0,1.52-.83L31.66,21a3.33,3.33,0,0,0,.71-1.13,15.39,15.39,0,0,1-17-3,15.1,15.1,0,0,1-4.34-10.7,15.91,15.91,0,0,1,1.2-5.9A3.59,3.59,0,0,0,11.44.75Z"/></g></g></svg>