<svg xmlns="http://www.w3.org/2000/svg" xmlns:xlink="http://www.w3.org/1999/xlink" viewBox="0 0 39.77 31.89"><defs><style>.cls-1{fill:url(#linear-gradient);}.cls-2{fill:#706c64;}</style><linearGradient id="linear-gradient" x1="11.69" y1="0.58" x2="19.94" y2="31.38" gradientUnits="userSpaceOnUse"><stop offset="0" stop-color="#f27900"/><stop offset="0.23" stop-color="#ee7300"/><stop offset="0.54" stop-color="#e26300"/><stop offset="0.88" stop-color="#ce4800"/><stop offset="1" stop-color="#c63d00"/></linearGradient></defs><g id="Vrstva_2" data-name="Vrstva 2"><g id="kiwi_computer" data-name="kiwi computer"><path class="cls-1" d="M12.5,23.9a22.62,22.62,0,0,1-2.48-4,30.68,30.68,0,0,1-4.7,0A11.46,11.46,0,0,0,7.21,23.2,20.71,20.71,0,0,0,12.5,23.9ZM14.2,4.72a10.61,10.61,0,0,0-1.61.36A12.47,12.47,0,0,0,11,5.74a20,20,0,0,0-1.07,4.87,44.64,44.64,0,0,0,7.86-2.38A21.8,21.8,0,0,0,14.2,4.72Zm7.73,1.57A11.35,11.35,0,0,0,16.6,4.6a24.1,24.1,0,0,1,2.68,3C20.27,7.13,21.16,6.69,21.93,6.29Zm-17.1,12v-.07a27,27,0,0,0,4.48.07,17.84,17.84,0,0,1-1.15-5.65Q6.63,12.85,5,13A11.35,11.35,0,0,0,4.83,18.28ZM8.77,7.13a11.31,11.31,0,0,0-3.14,4.09c.86-.08,1.72-.17,2.55-.3A20.46,20.46,0,0,1,8.77,7.13ZM23.39,1.85A15.94,15.94,0,0,0,.72,20.66,16,16,0,0,0,25.07,29a10.16,10.16,0,0,1-2.8-1.16A13.48,13.48,0,0,1,3.06,19.94,13.49,13.49,0,0,1,22.24,4,13.44,13.44,0,0,1,27.38,8.8h.18a10.35,10.35,0,0,1,2.8.4A15.78,15.78,0,0,0,23.39,1.85Zm-4.08,25c.35-.11.69-.24,1-.38l0,0a10.54,10.54,0,0,1-1.48-1.85,22,22,0,0,1-2.93.72,18.84,18.84,0,0,0,2.22,1.84C18.54,27,18.93,26.91,19.31,26.8ZM25,9.12a11.59,11.59,0,0,0-1.57-1.71c-.87.48-1.93,1-3.15,1.58.38.59.74,1.23,1.08,1.89A10.35,10.35,0,0,1,25,9.12ZM13.88,25.51a21.75,21.75,0,0,1-4.24-.12,11.47,11.47,0,0,0,6.09,1.91C15.18,26.82,14.55,26.22,13.88,25.51Zm3.4-6.44a6,6,0,0,1,0-.61,33.45,33.45,0,0,1-5.59,1.29,20.44,20.44,0,0,0,2.79,4,20.31,20.31,0,0,0,3.57-.73A10.23,10.23,0,0,1,17.28,19.07ZM11,18.12a31,31,0,0,0,6.62-1.58A10.27,10.27,0,0,1,20.13,12a18.14,18.14,0,0,0-1.35-2.34,44.36,44.36,0,0,1-9,2.7A16.5,16.5,0,0,0,11,18.12Z"/><path class="cls-2" d="M39,27,35,22.89a8.4,8.4,0,1,0-3.45,3.55l4,4.17A2.47,2.47,0,0,0,39,27Zm-11.41-2.5a5.41,5.41,0,1,1,5.4-5.4A5.41,5.41,0,0,1,27.56,24.47Z"/></g></g></svg>