<?xml version="1.0" encoding="UTF-8"?>
<svg id="Layer_2" data-name="Layer 2" xmlns="http://www.w3.org/2000/svg" xmlns:xlink="http://www.w3.org/1999/xlink" viewBox="0 0 34.66 33.36">
  <defs>
    <style>
      .cls-1 {
        fill: #706c64;
      }

      .cls-2 {
        fill: url(#linear-gradient);
      }
    </style>
    <linearGradient id="linear-gradient" x1="7.88" y1="9.22" x2="14.09" y2="32.39" gradientUnits="userSpaceOnUse">
      <stop offset="0" stop-color="#f27900"/>
      <stop offset=".23" stop-color="#ed7300"/>
      <stop offset=".54" stop-color="#e16200"/>
      <stop offset=".88" stop-color="#ce4700"/>
      <stop offset="1" stop-color="#c63d00"/>
    </linearGradient>
  </defs>
  <g id="Blogging_Internet1" data-name="Blogging + Internet1">
    <g>
      <path class="cls-1" d="M25.81,5.61c-.55-.08-1.63-.15-1.63-.15V0l-5.99,4.58-5.99,4.58,11.99,9.17v-6.11s0,0,.01,0c3.23,0,5.86,2.62,5.86,5.86s-2.59,5.82-5.79,5.85c.51,.09,1.03,.14,1.56,.14,4.89,0,8.85-3.96,8.85-8.86s-4.02-8.89-8.85-9.61Z"/>
      <path class="cls-2" d="M8.85,27.75c.55,.08,1.63,.15,1.63,.15v5.46l5.99-4.58,5.99-4.58L10.49,15.02v6.11s0,0-.01,0c-3.24,0-5.86-2.62-5.86-5.86s2.59-5.82,5.79-5.85c-.51-.09-1.03-.14-1.56-.14C3.96,9.28,0,13.24,0,18.13s4.02,8.89,8.85,9.61Z"/>
    </g>
  </g>
</svg>