<svg xmlns="http://www.w3.org/2000/svg" xmlns:xlink="http://www.w3.org/1999/xlink" viewBox="0 0 35.13 31.91"><defs><style>.cls-1{fill:#706c64;}.cls-2{fill:url(#linear-gradient);}</style><linearGradient id="linear-gradient" x1="11.99" y1="5.75" x2="18.65" y2="30.61" gradientUnits="userSpaceOnUse"><stop offset="0" stop-color="#f27900"/><stop offset="0.23" stop-color="#ee7300"/><stop offset="0.54" stop-color="#e26300"/><stop offset="0.88" stop-color="#ce4800"/><stop offset="1" stop-color="#c63d00"/></linearGradient></defs><g id="Vrstva_2" data-name="Vrstva 2"><g id="kiwi_computer" data-name="kiwi computer"><path class="cls-1" d="M34.31,23.61,22.37,2.92A5.6,5.6,0,0,0,17.56,0a5.59,5.59,0,0,0-4.8,2.93L.83,23.6a5.91,5.91,0,0,0-.83,3,5.24,5.24,0,0,0,.7,2.64,5.54,5.54,0,0,0,4.62,2.69h24.2a5.56,5.56,0,0,0,4.91-2.69,5.24,5.24,0,0,0,.7-2.64A5.94,5.94,0,0,0,34.31,23.61Zm-1.56,4.64A3.64,3.64,0,0,1,29.5,30H5.62a3.62,3.62,0,0,1-3.24-1.72,3.33,3.33,0,0,1-.44-1.67,4,4,0,0,1,.57-2L14.45,3.9h0a3.61,3.61,0,0,1,3.11-2,3.63,3.63,0,0,1,3.12,2l12,20.68a4.16,4.16,0,0,1,.56,2A3.31,3.31,0,0,1,32.75,28.25Z"/><path class="cls-2" d="M30.59,25.75l-4.88-8.46-2.18-3.76L18.65,5.07a1.14,1.14,0,0,0-2.17,0L11.6,13.53,9.42,17.29,4.54,25.75c-.59,1-.11,1.88,1.09,1.88H29.5C30.7,27.63,31.19,26.78,30.59,25.75Zm-11.85-1a1.86,1.86,0,0,1-2.56,0,1.65,1.65,0,0,1-.55-1.25,1.68,1.68,0,0,1,.55-1.25,1.84,1.84,0,0,1,2.56,0,1.68,1.68,0,0,1,.55,1.25A1.65,1.65,0,0,1,18.74,24.78Zm.43-10.72c-.09.43-.21.93-.35,1.51s-.28,1.22-.45,2-.35,1.82-.54,3h-.74q-.29-1.81-.54-3c-.17-.8-.32-1.48-.45-2s-.23-1-.34-1.47A5.84,5.84,0,0,1,15.61,13a1.67,1.67,0,0,1,.54-1.25,1.9,1.9,0,0,1,2.61,0A1.68,1.68,0,0,1,19.31,13,5.26,5.26,0,0,1,19.17,14.06Z"/></g></g></svg>